<svg width="142" height="40" viewBox="0 0 142 40" fill="none" xmlns="http://www.w3.org/2000/svg">
<g clip-path="url(#clip0_2835_710)">
<path d="M50.902 5.91818C50.962 6.14519 50.9912 6.50488 50.9912 6.99725C50.9912 7.47045 50.962 7.82055 50.902 8.04755C50.7219 8.72857 50.3067 9.17139 49.6563 9.37921C49.3254 9.48791 48.9005 9.54226 48.3815 9.54226C47.8511 9.54226 47.4213 9.48791 47.0904 9.37921C46.8001 9.28009 46.5422 9.11863 46.3167 8.89163C46.0913 8.66462 45.9388 8.38326 45.8593 8.04915C45.7896 7.78218 45.7539 7.43368 45.7539 6.99885C45.7539 6.54484 45.7896 6.18515 45.8593 5.91978C45.9388 5.59366 46.0913 5.3187 46.3167 5.09169C46.5422 4.86469 46.7984 4.69683 47.0904 4.58813C47.3905 4.48901 47.8203 4.43945 48.3815 4.43945C48.9313 4.43945 49.3563 4.48901 49.6563 4.58813C50.3165 4.81513 50.7317 5.25795 50.902 5.91818ZM50.6165 27.2151H46.1302V11.5677H50.6165V27.2151Z" fill="#0086EE"/>
<path d="M69.9261 20.0134H61.2227L63.3378 15.8729H68.5296C68.9903 15.8729 69.3941 15.8314 69.7445 15.7466C70.0948 15.6635 70.4224 15.5228 70.7274 15.3246C71.0323 15.128 71.2642 14.837 71.4248 14.4518C71.5854 14.0681 71.6648 13.5933 71.6648 13.0322C71.6648 11.9771 71.3924 11.2337 70.8474 10.7989C70.3024 10.3657 69.5287 10.1483 68.5296 10.1483H60.0517V27.2152H55.5508V6.00781H69.9261C71.8465 6.00781 73.3371 6.52577 74.3978 7.56008C75.4586 8.59599 76.0376 9.93084 76.1382 11.5678C76.1479 11.7453 76.1528 12.5494 76.1528 13.9786C76.1528 15.112 75.9322 16.1255 75.4927 17.0175C75.0531 17.9096 74.354 18.6322 73.3987 19.1837C72.445 19.7368 71.2869 20.0134 69.9261 20.0134Z" fill="#0086EE"/>
<path d="M85.6227 11.5684H93.6206L91.4893 15.7392H87.3631C86.9933 15.7392 86.6673 15.7536 86.3883 15.7839C86.1077 15.8143 85.8011 15.8831 85.4654 15.9918C85.1296 16.1005 84.8523 16.2475 84.6333 16.4346C84.4127 16.6216 84.2311 16.8854 84.0851 17.2259C83.9391 17.5664 83.8678 17.9725 83.8678 18.4456V27.2157H79.3652V17.6319C79.3652 16.7847 79.495 15.9982 79.7561 15.274C80.0156 14.5498 80.3984 13.9087 80.9045 13.3508C81.4089 12.7945 82.0642 12.3581 82.8703 12.0416C83.6748 11.7266 84.5928 11.5684 85.6227 11.5684Z" fill="#0086EE"/>
<path d="M108.715 27.2153H101.543C100.513 27.2153 99.5918 27.0571 98.7824 26.7422C97.9714 26.4272 97.3162 25.9908 96.8166 25.4329C96.3154 24.8766 95.9359 24.2355 95.6764 23.5097C95.4169 22.7856 95.2871 21.999 95.2871 21.1502V17.63C95.2871 16.7827 95.4169 15.9962 95.6764 15.272C95.9359 14.5478 96.3187 13.9068 96.8247 13.3489C97.3291 12.7926 97.9844 12.3561 98.7905 12.0396C99.595 11.7247 100.513 11.5664 101.545 11.5664H108.717C109.747 11.5664 110.665 11.7247 111.471 12.0396C112.275 12.3545 112.931 12.791 113.437 13.3489C113.941 13.9068 114.324 14.5462 114.585 15.272C114.845 15.9962 114.976 16.7827 114.976 17.63V21.1502C114.976 22.2932 114.754 23.3147 114.308 24.2115C113.863 25.1084 113.159 25.8341 112.199 26.3857C111.236 26.9404 110.076 27.2153 108.715 27.2153ZM110.47 20.3541V18.4453C110.47 17.9721 110.397 17.566 110.253 17.2255C110.107 16.885 109.925 16.6213 109.705 16.4342C109.484 16.2472 109.207 16.0985 108.873 15.9914C108.537 15.8827 108.23 15.814 107.95 15.7836C107.669 15.7548 107.345 15.7388 106.975 15.7388H103.283C102.914 15.7388 102.588 15.7532 102.309 15.7836C102.028 15.814 101.721 15.8795 101.386 15.9834C101.05 16.0873 100.776 16.2328 100.56 16.4198C100.344 16.6069 100.163 16.8738 100.012 17.2175C99.8626 17.5629 99.7864 17.9721 99.7864 18.4453V20.3525C99.7864 20.8256 99.861 21.2317 100.012 21.5722C100.163 21.9127 100.344 22.1765 100.56 22.3635C100.774 22.5506 101.05 22.696 101.386 22.7999C101.721 22.9039 102.028 22.9694 102.309 22.9998C102.589 23.0286 102.914 23.0445 103.283 23.0445H106.975C107.345 23.0445 107.671 23.0301 107.95 22.9998C108.23 22.9694 108.537 22.9039 108.873 22.7999C109.208 22.696 109.482 22.5506 109.698 22.3635C109.914 22.1765 110.096 21.9127 110.246 21.5722C110.396 21.2333 110.47 20.8272 110.47 20.3541Z" fill="#0086EE"/>
<path d="M34.8469 39.0002H6.13509C3.19525 39.0002 0.8125 36.6517 0.8125 33.7542V5.45699C0.8125 2.55942 3.19525 0.210938 6.13509 0.210938H34.8469C37.7868 0.210938 40.1695 2.55942 40.1695 5.45699V33.7559C40.1695 36.6518 37.785 39.0002 34.8469 39.0002Z" fill="#0086EE"/>
<path d="M7.3965 12.2335C7.53134 11.9047 7.90747 11.7403 8.24457 11.8627L22.5357 17.0266C23.9764 17.6037 23.9498 18.7543 22.5357 20.4523L13.9309 32.3835C13.7144 32.6843 13.2886 32.7508 12.987 32.5287L9.17602 29.7238C8.87618 29.5035 8.81941 29.0838 9.04828 28.7935L14.653 21.6763C15.3059 20.9244 15.2207 20.4225 14.653 20.085L6.17585 17.0161C5.82279 16.8884 5.64537 16.4967 5.7873 16.1523L7.3965 12.2335Z" fill="white"/>
<path d="M26.169 23.6059L23.6816 27.2116C23.5237 27.4407 23.529 27.7415 23.6922 27.9671L26.884 32.3248C27.12 32.6466 27.5884 32.6903 27.8811 32.4192L31.1616 29.3853C31.4153 29.1509 31.4437 28.7645 31.2272 28.4952L27.2406 23.5656C26.9638 23.2194 26.4227 23.2404 26.169 23.6059Z" fill="white"/>
<path d="M23.661 10.7095H17.3591C17.2615 10.7095 17.1816 10.6308 17.1816 10.5346V4.32331C17.1816 4.22713 17.2615 4.14844 17.3591 4.14844H23.661C23.7586 4.14844 23.8384 4.22713 23.8384 4.32331V10.5346C23.8384 10.6308 23.7586 10.7095 23.661 10.7095Z" fill="white"/>
<path d="M27.4508 13.5405L32.9083 11.8355C33.2507 11.7289 33.618 11.9072 33.7386 12.2412L35.2059 16.2877C35.33 16.6287 35.1491 17.0046 34.8031 17.127L29.2428 19.1031C28.8844 19.2307 28.4923 19.0384 28.3787 18.6799L27.0144 14.3624C26.9062 14.0161 27.0995 13.6489 27.4508 13.5405Z" fill="white"/>
<path d="M46.44 38V31H47.74V38H46.44ZM51.0534 38V32.1H48.7334V31H54.6734V32.1H52.3534V38H51.0534ZM61.5827 38V36.92L61.5127 36.69V34.8C61.5127 34.4333 61.4027 34.15 61.1827 33.95C60.9627 33.7433 60.6293 33.64 60.1827 33.64C59.8827 33.64 59.586 33.6867 59.2927 33.78C59.006 33.8733 58.7627 34.0033 58.5627 34.17L58.0727 33.26C58.3593 33.04 58.6993 32.8767 59.0927 32.77C59.4927 32.6567 59.906 32.6 60.3327 32.6C61.106 32.6 61.7027 32.7867 62.1227 33.16C62.5493 33.5267 62.7627 34.0967 62.7627 34.87V38H61.5827ZM59.9027 38.07C59.5027 38.07 59.1527 38.0033 58.8527 37.87C58.5527 37.73 58.3193 37.54 58.1527 37.3C57.9927 37.0533 57.9127 36.7767 57.9127 36.47C57.9127 36.17 57.9827 35.9 58.1227 35.66C58.2693 35.42 58.506 35.23 58.8327 35.09C59.1593 34.95 59.5927 34.88 60.1327 34.88H61.6827V35.71H60.2227C59.796 35.71 59.5093 35.78 59.3627 35.92C59.216 36.0533 59.1427 36.22 59.1427 36.42C59.1427 36.6467 59.2327 36.8267 59.4127 36.96C59.5927 37.0933 59.8427 37.16 60.1627 37.16C60.4693 37.16 60.7427 37.09 60.9827 36.95C61.2293 36.81 61.406 36.6033 61.5127 36.33L61.7227 37.08C61.6027 37.3933 61.386 37.6367 61.0727 37.81C60.766 37.9833 60.376 38.07 59.9027 38.07ZM67.3969 32.6C67.8235 32.6 68.2035 32.6833 68.5369 32.85C68.8769 33.0167 69.1435 33.2733 69.3369 33.62C69.5302 33.96 69.6269 34.4 69.6269 34.94V38H68.3769V35.1C68.3769 34.6267 68.2635 34.2733 68.0369 34.04C67.8169 33.8067 67.5069 33.69 67.1069 33.69C66.8135 33.69 66.5535 33.75 66.3269 33.87C66.1002 33.99 65.9235 34.17 65.7969 34.41C65.6769 34.6433 65.6169 34.94 65.6169 35.3V38H64.3669V32.66H65.5569V34.1L65.3469 33.66C65.5335 33.32 65.8035 33.06 66.1569 32.88C66.5169 32.6933 66.9302 32.6 67.3969 32.6ZM73.4823 38.07C72.969 38.07 72.5057 37.9567 72.0923 37.73C71.6857 37.4967 71.3657 37.1767 71.1323 36.77C70.899 36.3633 70.7823 35.8833 70.7823 35.33C70.7823 34.7767 70.899 34.2967 71.1323 33.89C71.3657 33.4833 71.6857 33.1667 72.0923 32.94C72.5057 32.7133 72.969 32.6 73.4823 32.6C73.929 32.6 74.329 32.7 74.6823 32.9C75.0357 33.0933 75.3157 33.39 75.5223 33.79C75.729 34.19 75.8323 34.7033 75.8323 35.33C75.8323 35.95 75.7323 36.4633 75.5323 36.87C75.3323 37.27 75.0557 37.57 74.7023 37.77C74.349 37.97 73.9423 38.07 73.4823 38.07ZM73.6323 37C73.9323 37 74.199 36.9333 74.4323 36.8C74.6723 36.6667 74.8623 36.4733 75.0023 36.22C75.149 35.9667 75.2223 35.67 75.2223 35.33C75.2223 34.9833 75.149 34.6867 75.0023 34.44C74.8623 34.1867 74.6723 33.9933 74.4323 33.86C74.199 33.7267 73.9323 33.66 73.6323 33.66C73.3323 33.66 73.0623 33.7267 72.8223 33.86C72.589 33.9933 72.399 34.1867 72.2523 34.44C72.1123 34.6867 72.0423 34.9833 72.0423 35.33C72.0423 35.67 72.1123 35.9667 72.2523 36.22C72.399 36.4733 72.589 36.6667 72.8223 36.8C73.0623 36.9333 73.3323 37 73.6323 37ZM75.2523 38V36.74L75.3023 35.32L75.2023 33.9V30.58H76.4423V38H75.2523ZM80.9713 38V31H82.0413L85.1013 36.11H84.5413L87.5513 31H88.6213L88.6313 38H87.4013L87.3913 32.93H87.6513L85.0913 37.2H84.5113L81.9113 32.93H82.2113V38H80.9713ZM92.542 38.1C92.0554 38.1 91.6187 38.02 91.232 37.86C90.8454 37.7 90.542 37.48 90.322 37.2C90.102 36.92 89.992 36.5967 89.992 36.23C89.992 35.8967 90.0654 35.5967 90.212 35.33C90.3587 35.0633 90.592 34.81 90.912 34.57C91.232 34.3233 91.642 34.0767 92.142 33.83C92.5354 33.6367 92.842 33.4667 93.062 33.32C93.2887 33.1733 93.4454 33.0333 93.532 32.9C93.6254 32.7667 93.672 32.6267 93.672 32.48C93.672 32.28 93.602 32.12 93.462 32C93.322 31.8733 93.122 31.81 92.862 31.81C92.582 31.81 92.362 31.88 92.202 32.02C92.0487 32.1533 91.972 32.33 91.972 32.55C91.972 32.6633 91.992 32.7733 92.032 32.88C92.0787 32.9867 92.1587 33.1067 92.272 33.24C92.3854 33.3733 92.5487 33.5433 92.762 33.75L96.462 37.3L95.772 38.11L91.772 34.27C91.5454 34.05 91.362 33.8467 91.222 33.66C91.082 33.4733 90.982 33.2933 90.922 33.12C90.862 32.94 90.832 32.7567 90.832 32.57C90.832 32.2433 90.9154 31.9567 91.082 31.71C91.2487 31.4567 91.4854 31.2633 91.792 31.13C92.0987 30.99 92.4554 30.92 92.862 30.92C93.242 30.92 93.5687 30.9833 93.842 31.11C94.122 31.23 94.3387 31.4067 94.492 31.64C94.652 31.8667 94.732 32.14 94.732 32.46C94.732 32.74 94.662 33 94.522 33.24C94.382 33.4733 94.162 33.6967 93.862 33.91C93.5687 34.1233 93.1754 34.3467 92.682 34.58C92.3154 34.76 92.0254 34.93 91.812 35.09C91.5987 35.25 91.4454 35.41 91.352 35.57C91.2587 35.73 91.212 35.9067 91.212 36.1C91.212 36.2933 91.2687 36.4633 91.382 36.61C91.502 36.7567 91.6687 36.8733 91.882 36.96C92.0954 37.04 92.3454 37.08 92.632 37.08C93.0587 37.08 93.4454 36.9867 93.792 36.8C94.1454 36.6067 94.442 36.32 94.682 35.94C94.922 35.56 95.0954 35.09 95.202 34.53L96.212 34.86C96.072 35.5333 95.8287 36.1133 95.482 36.6C95.142 37.08 94.722 37.45 94.222 37.71C93.722 37.97 93.162 38.1 92.542 38.1ZM97.5826 38V31H98.6526L101.713 36.11H101.153L104.163 31H105.233L105.243 38H104.013L104.003 32.93H104.263L101.703 37.2H101.123L98.5226 32.93H98.8226V38H97.5826ZM113.167 38.1C112.62 38.1 112.117 38.0133 111.657 37.84C111.204 37.66 110.807 37.41 110.467 37.09C110.127 36.7633 109.864 36.38 109.677 35.94C109.49 35.5 109.397 35.02 109.397 34.5C109.397 33.98 109.49 33.5 109.677 33.06C109.864 32.62 110.127 32.24 110.467 31.92C110.814 31.5933 111.217 31.3433 111.677 31.17C112.137 30.99 112.64 30.9 113.187 30.9C113.78 30.9 114.314 30.9967 114.787 31.19C115.267 31.3833 115.67 31.6667 115.997 32.04L115.177 32.84C114.904 32.5667 114.607 32.3667 114.287 32.24C113.974 32.1067 113.627 32.04 113.247 32.04C112.88 32.04 112.54 32.1 112.227 32.22C111.914 32.34 111.644 32.51 111.417 32.73C111.19 32.95 111.014 33.21 110.887 33.51C110.767 33.81 110.707 34.14 110.707 34.5C110.707 34.8533 110.767 35.18 110.887 35.48C111.014 35.78 111.19 36.0433 111.417 36.27C111.644 36.49 111.91 36.66 112.217 36.78C112.524 36.9 112.864 36.96 113.237 36.96C113.584 36.96 113.917 36.9067 114.237 36.8C114.564 36.6867 114.874 36.5 115.167 36.24L115.907 37.21C115.54 37.5033 115.114 37.7267 114.627 37.88C114.147 38.0267 113.66 38.1 113.167 38.1ZM114.677 37.04V34.42H115.907V37.21L114.677 37.04ZM117.502 38V32.66H118.692V34.13L118.552 33.7C118.712 33.34 118.962 33.0667 119.302 32.88C119.648 32.6933 120.078 32.6 120.592 32.6V33.79C120.538 33.7767 120.488 33.77 120.442 33.77C120.395 33.7633 120.348 33.76 120.302 33.76C119.828 33.76 119.452 33.9 119.172 34.18C118.892 34.4533 118.752 34.8633 118.752 35.41V38H117.502ZM124.003 38.07C123.457 38.07 122.97 37.9533 122.543 37.72C122.117 37.48 121.78 37.1533 121.533 36.74C121.287 36.3267 121.163 35.8567 121.163 35.33C121.163 34.7967 121.287 34.3267 121.533 33.92C121.78 33.5067 122.117 33.1833 122.543 32.95C122.97 32.7167 123.457 32.6 124.003 32.6C124.557 32.6 125.047 32.7167 125.473 32.95C125.907 33.1833 126.243 33.5033 126.483 33.91C126.73 34.3167 126.853 34.79 126.853 35.33C126.853 35.8567 126.73 36.3267 126.483 36.74C126.243 37.1533 125.907 37.48 125.473 37.72C125.047 37.9533 124.557 38.07 124.003 38.07ZM124.003 37C124.31 37 124.583 36.9333 124.823 36.8C125.063 36.6667 125.25 36.4733 125.383 36.22C125.523 35.9667 125.593 35.67 125.593 35.33C125.593 34.9833 125.523 34.6867 125.383 34.44C125.25 34.1867 125.063 33.9933 124.823 33.86C124.583 33.7267 124.313 33.66 124.013 33.66C123.707 33.66 123.433 33.7267 123.193 33.86C122.96 33.9933 122.773 34.1867 122.633 34.44C122.493 34.6867 122.423 34.9833 122.423 35.33C122.423 35.67 122.493 35.9667 122.633 36.22C122.773 36.4733 122.96 36.6667 123.193 36.8C123.433 36.9333 123.703 37 124.003 37ZM130.309 38.07C129.855 38.07 129.455 37.9867 129.109 37.82C128.762 37.6467 128.492 37.3867 128.299 37.04C128.105 36.6867 128.009 36.2433 128.009 35.71V32.66H129.259V35.54C129.259 36.02 129.365 36.38 129.579 36.62C129.799 36.8533 130.109 36.97 130.509 36.97C130.802 36.97 131.055 36.91 131.269 36.79C131.489 36.67 131.659 36.49 131.779 36.25C131.905 36.01 131.969 35.7133 131.969 35.36V32.66H133.219V38H132.029V36.56L132.239 37C132.059 37.3467 131.795 37.6133 131.449 37.8C131.102 37.98 130.722 38.07 130.309 38.07ZM137.815 38.07C137.382 38.07 136.985 37.97 136.625 37.77C136.272 37.57 135.988 37.27 135.775 36.87C135.568 36.4633 135.465 35.95 135.465 35.33C135.465 34.7033 135.565 34.19 135.765 33.79C135.972 33.39 136.252 33.0933 136.605 32.9C136.958 32.7 137.362 32.6 137.815 32.6C138.342 32.6 138.805 32.7133 139.205 32.94C139.612 33.1667 139.932 33.4833 140.165 33.89C140.405 34.2967 140.525 34.7767 140.525 35.33C140.525 35.8833 140.405 36.3667 140.165 36.78C139.932 37.1867 139.612 37.5033 139.205 37.73C138.805 37.9567 138.342 38.07 137.815 38.07ZM134.855 39.94V32.66H136.045V33.92L136.005 35.34L136.105 36.76V39.94H134.855ZM137.675 37C137.975 37 138.242 36.9333 138.475 36.8C138.715 36.6667 138.905 36.4733 139.045 36.22C139.185 35.9667 139.255 35.67 139.255 35.33C139.255 34.9833 139.185 34.6867 139.045 34.44C138.905 34.1867 138.715 33.9933 138.475 33.86C138.242 33.7267 137.975 33.66 137.675 33.66C137.375 33.66 137.105 33.7267 136.865 33.86C136.625 33.9933 136.435 34.1867 136.295 34.44C136.155 34.6867 136.085 34.9833 136.085 35.33C136.085 35.67 136.155 35.9667 136.295 36.22C136.435 36.4733 136.625 36.6667 136.865 36.8C137.105 36.9333 137.375 37 137.675 37Z" fill="white"/>
</g>
<defs>
<clipPath id="clip0_2835_710">
<rect width="141" height="40" fill="white" transform="translate(0.5)"/>
</clipPath>
</defs>
</svg>
