<svg width="451" height="475" viewBox="0 0 451 475" fill="none" xmlns="http://www.w3.org/2000/svg">
<path d="M27.6093 134.599C29.8544 129.125 36.1169 126.389 41.7296 128.427L279.677 214.405C303.664 224.013 303.221 243.171 279.677 271.442L136.406 470.098C132.802 475.105 125.713 476.212 120.691 472.514L57.2383 425.813C52.2459 422.144 51.3007 415.156 55.1114 410.323L148.429 291.823C159.3 279.303 157.882 270.947 148.429 265.328L7.28553 214.23C1.40701 212.105 -1.54704 205.583 0.816192 199.847L27.6093 134.599Z" fill="white" fill-opacity="0.1"/>
<path d="M340.167 323.973L298.751 384.01C296.122 387.824 296.211 392.832 298.929 396.588L352.072 469.143C356.001 474.501 363.799 475.229 368.673 470.716L423.294 420.2C427.518 416.299 427.99 409.864 424.386 405.38L358.009 323.304C353.401 317.539 344.391 317.888 340.167 323.973Z" fill="white" fill-opacity="0.1"/>
<path d="M298.409 109.241H193.482C191.857 109.241 190.528 107.931 190.528 106.33V2.91155C190.528 1.3102 191.857 0 193.482 0H298.409C300.034 0 301.363 1.3102 301.363 2.91155V106.33C301.363 107.931 300.034 109.241 298.409 109.241Z" fill="white" fill-opacity="0.1"/>
<path d="M361.513 156.377L452.38 127.99C458.081 126.214 464.196 129.183 466.204 134.744L490.634 202.118C492.702 207.795 489.689 214.055 483.929 216.093L391.349 248.994C385.382 251.119 378.854 247.917 376.963 241.948L354.247 170.062C352.445 164.297 355.664 158.182 361.513 156.377Z" fill="white" fill-opacity="0.1"/>
</svg>
